PathFileType	4	(X/Y/Z)	17_coords_data.trc
DataRate	CameraRate	NumFrames	NumMarkers	Units	OrigDataRate	OrigDataStartFrame	OrigNumFrames
30.0	30.0	8	21	m	30.0	11	53
Frame#	Time	THUMB_TIP	THUMB_IP	THUMB_MCP	THUMB_CMC	INDEX_TIP	INDEX_DIP	INDEX_PIP	INDEX_MCP	MIDDLE_TIP	MIDDLE_DIP	MIDDLE_PIP	MIDDLE_MCP	RING_TIP	RING_DIP	RING_PIP	RING_MCP	PINKY_TIP	PINKY_DIP	PINKY_PIP	PINKY_MCP	WRIST
X1	Y1	Z1	X2	Y2	Z2	X3	Y3	Z3	X4	Y4	Z4	X5	Y5	Z5	X6	Y6	Z6	X7	Y7	Z7	X8	Y8	Z8	X9	Y9	Z9	X10	Y10	Z10	X11	Y11	Z11	X12	Y12	Z12	X13	Y13	Z13	X14	Y14	Z14	X15	Y15	Z15	X16	Y16	Z16	X17	Y17	Z17	X18	Y18	Z18	X19	Y19	Z19	X20	Y20	Z20	X21	Y21	Z21
9	0.33333333333333187	0.5411090614233547	-0.0025677796099315975	-0.12514374137777923	0.5192308914049629	-0.009196359418553235	-0.12746916743918865	0.49125667120550576	-0.01720141349810478	-0.11641556560920874	0.47944323267258193	-0.027117020499944355	-0.07455850637407016	0.5025544423863431	-0.0012926050672773526	-0.11607825375346342	0.5188740105040154	0.0018176432041712154	-0.12328922124351693	0.5284181786286848	0.024696413479835755	-0.12747019702452878	0.49126416151507757	0.03301482903962927	-0.10839091326186176	0.5056293199072757	-0.010556161070431558	-0.1009178778720217	0.5234362704353522	-0.007838035669930132	-0.10279519169708679	0.5399714442092047	0.016075169653292365	-0.10483386514762053	0.5045619179058337	0.03702879580640517	-0.08741953429609323	0.5050852804970226	-0.009428314789798109	-0.08358211431690624	0.5230488868753604	-0.010900645320555125	-0.08320649656926496	0.5423902626094115	0.004786604094110136	-0.08324350354624976	0.517291179933086	0.03281024502834029	-0.06843025165490849	0.5067183576113116	-0.02219406281400249	-0.06305161984090185	0.5230331381788603	-0.024738871541954643	-0.06756292603433098	0.539802949783329	-0.012215644380496604	-0.06590334198609721	0.5245571165084464	0.01669732248187772	-0.050655772803774035	0.4622830810018609	-0.023011742144276925	-0.051989820119430985
10	0.3666666666666651	0.5410929972993987	-0.0025774178762435485	-0.12505679799261826	0.5191978125957313	-0.009125517696957575	-0.12744913482723158	0.4912159109514771	-0.017117055185309704	-0.11640519943519148	0.47943073344753273	-0.027135434312010487	-0.07456464887865352	0.5025667588971456	-0.001205102569788341	-0.11599710108257233	0.5189024929548385	0.001901482012871436	-0.12317295817612686	0.528535051437989	0.024765393387883416	-0.12723069235966852	0.49131579638272305	0.03309545817164794	-0.10828410512530479	0.5056245558763045	-0.010549086818253728	-0.10085339853831732	0.52343646015713	-0.007843534668230179	-0.1027016554074284	0.5400301763652776	0.016036423958730617	-0.10465247789502036	0.5046376693594672	0.03705586140407535	-0.08728291778761119	0.5050752814844331	-0.009379086629198619	-0.08361050957375349	0.5230252760768929	-0.010971852016745887	-0.08309983105364496	0.5423907561736282	0.00468567502152506	-0.08310241344757766	0.5173659855013383	0.03277707894808968	-0.06829178509379433	0.5067013201347133	-0.022241354738527952	-0.06288473731553451	0.5229794026329279	-0.024871677044952967	-0.06747880248111987	0.5397666679249348	-0.012378434056411924	-0.06577040479760174	0.5246185248452492	0.01659692907514221	-0.05054392970873273	0.4622830810018609	-0.023011742144276925	-0.051989820119430985
11	0.39999999999999825	0.541074917873661	-0.002749729973717696	-0.12497723746354925	0.5191645496134921	-0.0092141404840137	-0.12745658404241905	0.49117007389278733	-0.017145986465162966	-0.11640148800239328	0.4794265736293052	-0.027195662614411975	-0.0745567247594639	0.5025618986985718	-0.0012972748508414123	-0.11596898092598043	0.5189178208295985	0.00176954428990872	-0.12311589855540092	0.5286438230303508	0.0246040681737153	-0.1271158027031059	0.4914034408079605	0.03306513898625518	-0.10826904418511488	0.5055435163616084	-0.010647747374539218	-0.10083405497291215	0.5233759228802286	-0.008045113015843652	-0.1026317123789848	0.5400708150438686	0.01576666950823269	-0.10455242544202431	0.5047633285091784	0.03698521032408131	-0.08725205431164562	0.5050349088093348	-0.00938319139724908	-0.08367669142770018	0.5229607617465365	-0.011184327121111726	-0.08302884377736697	0.5423828036729861	0.004402979416389119	-0.08304073130075565	0.5175065206365104	0.03264524988441453	-0.06826691882394201	0.506630566973196	-0.022419151988533836	-0.06281540508627725	0.5228980192779707	-0.025116999442000965	-0.06740796587843845	0.5397279914101032	-0.012683721533393366	-0.06568237685466216	0.5247375476570991	0.016408185248823592	-0.050522198529100976	0.4622830810018608	-0.023011742144276925	-0.05198982011943096
12	0.43333333333333146	0.5410483496842603	-0.0030029554993664664	-0.12480580408101521	0.5191409381384229	-0.009405699918696109	-0.12746478570224867	0.4911241135544011	-0.017261076817464582	-0.11641170495494366	0.4794265754742826	-0.027266511983776054	-0.07454347272575929	0.5024062735685974	-0.0013358056707077903	-0.11596063114535335	0.5188050882248163	0.0015303362059273518	-0.1230925389275653	0.5286793886702202	0.024293673413286365	-0.12713463032905067	0.4914678434931836	0.03297106038729458	-0.10832931313309041	0.5053813019932427	-0.010793618602031763	-0.10082081281713937	0.5232314593084471	-0.008282201806331546	-0.10257143256475215	0.5400711255361266	0.015424057867409524	-0.10453317760973432	0.5048669724778656	0.03687681640091656	-0.08731125321803007	0.5049190913107464	-0.009389029853394293	-0.08374250346899578	0.5228180373690181	-0.01138907685088586	-0.08295032797650326	0.5423292837988913	0.00408623279008602	-0.08302800209582589	0.5176260921032318	0.03251200330178172	-0.06831580562949516	0.5065131987314291	-0.022527696671591935	-0.06268113395648275	0.5227628627897872	-0.025302284096744176	-0.06729091514550803	0.5396479714211847	-0.012938935460027223	-0.06560191070711952	0.5248183411957581	0.016280118527951637	-0.05052834435987802	0.4622830810018609	-0.023011742144276925	-0.051989820119430985
13	0.4666666666666647	0.5409444777377529	-0.0032103552024944637	-0.12460274605102001	0.5190593847042199	-0.009580787362810317	-0.1275114050211335	0.4910303094684103	-0.01736595008161146	-0.11643972118952434	0.47944175874341544	-0.02730320020972188	-0.07452496779664855	0.5021827494546539	-0.0014695017469216198	-0.11595522278566547	0.5185879687693628	0.001299027081860693	-0.1231109217285015	0.5286148775014691	0.02397262615513962	-0.12727971524008497	0.49148966641976	0.03287792399228928	-0.10841041566192877	0.5051652269912417	-0.010790141446146984	-0.10081892599905315	0.5230414259291423	-0.008452495031387786	-0.10254430154430821	0.540015106529803	0.015149126824251735	-0.1046100127172837	0.504911386478585	0.03678531207070679	-0.08741256384988441	0.504799516415195	-0.00927272680058433	-0.08381983961943873	0.522669672448541	-0.011463490097235352	-0.08289351380099347	0.5422584973216766	0.003912577183137089	-0.08307918576734746	0.5176695517397324	0.03244761185518985	-0.06838713398984075	0.506408495536546	-0.022436586496536903	-0.0625301983394724	0.5226309337266852	-0.02532147005518215	-0.06716807997014923	0.5395604507287518	-0.013010592645363972	-0.06554149751691626	0.5248132994884408	0.0162886805853506	-0.05054291193535765	0.4622830810018609	-0.023011742144276925	-0.05198982011943096
14	0.4999999999999978	0.5409490107124325	-0.0033645751859785467	-0.12434100981378049	0.5190862048605951	-0.009705797583747233	-0.12747256195080453	0.49103637756581686	-0.017466013793089874	-0.11643597583383133	0.4794868379762862	-0.027311912203972	-0.07448890895481752	0.5019769436514392	-0.0015697437570757478	-0.11596000878528595	0.5183633804773626	0.0011363146142159275	-0.12318233086625013	0.5284791644534786	0.02373886960276561	-0.12751883355138027	0.4914612843015962	0.03279236134627872	-0.10850970599878032	0.50496002268693	-0.010656550512062712	-0.10074050010704733	0.5228507068252025	-0.008478443061526009	-0.10252355058263127	0.5399303535316504	0.015029760936861258	-0.10477289785531524	0.5048883384325716	0.03673103567412461	-0.08753167476721171	0.5046015620156847	-0.009085994594745128	-0.08356221650138423	0.5224683097225044	-0.011367942000940157	-0.08280588164418268	0.5421566497914065	0.0038770043535446552	-0.08318118815910377	0.5176298512325073	0.03246010064205207	-0.06847868520848016	0.5063607144046691	-0.02205000973408855	-0.06229813609257853	0.5225299125977501	-0.02509779539630852	-0.06701703769676895	0.5395219398437779	-0.01285882658795423	-0.06550354122224905	0.5247217811045239	0.016433980500730416	-0.05054459055189808	0.4622830810018609	-0.023011742144276925	-0.051989820119430985
15	0.533333333333331	0.5410891737283507	-0.003442741967792262	-0.12428028856882975	0.5192103365982128	-0.00973812670505847	-0.12739230027232606	0.4911396928877185	-0.017493888182018913	-0.11640562081077002	0.4795392652565803	-0.027271027932278646	-0.07445651334614545	0.5018194311923301	-0.0014948853631163717	-0.11599560639865422	0.5181932731546267	0.0011206708190417691	-0.12327957271184539	0.528308807208103	0.023695533747790543	-0.1277585645137104	0.4913873015347552	0.03276798937235881	-0.1085718748108673	0.5048304184520753	-0.010165810402432696	-0.10060245022378497	0.5227354562192137	-0.008294216485048578	-0.102579002465888	0.5398308791026801	0.015185590677965544	-0.1049986557516141	0.504777043813412	0.03675772013438361	-0.08761993936551668	0.5044199657406961	-0.008608154623654496	-0.08302906583327294	0.5222751880076476	-0.011078795089151772	-0.08273415315465518	0.542064181832947	0.004027712906419789	-0.08334170443808633	0.5175189170487372	0.03254917917165712	-0.06855059992375165	0.5063859511645386	-0.021383330428025316	-0.06209832336760032	0.5224740407561487	-0.024664269856299548	-0.06693658852779169	0.5395462882987796	-0.01251576891070949	-0.06560831610914764	0.5245852698609952	0.016649838988258447	-0.050561100612985604	0.4622830810018609	-0.023011742144276925	-0.051989820119430985
16	0.5666666666666642	0.5412966766741483	-0.00344563720896518	-0.12470900600148743	0.5193359500747985	-0.009654224396104971	-0.127388545582889	0.49128845264451126	-0.017456896693683444	-0.11637599851535554	0.4795674647875695	-0.02718971582052787	-0.0744501034682423	0.5017604700536823	-0.0010633851309953535	-0.1160277592391751	0.5181069535191788	0.0014889714914843033	-0.12339511656619076	0.5280989776766997	0.024104813065428	-0.12794407206584205	0.49122981557845	0.03289539754292359	-0.10852689913266228	0.504899730902219	-0.009436808068394864	-0.10033285674539508	0.5227798780835207	-0.007861117663368722	-0.10274481373557878	0.5397186949074061	0.015723935933633082	-0.10524106721497742	0.5045675695333068	0.03691945162891641	-0.08759747290017442	0.504399135236415	-0.008352077252546386	-0.08219901034883573	0.5222747949456822	-0.01061065510448278	-0.08279869030116677	0.5420436741722037	0.004515435746533791	-0.0835555051358503	0.5173035593087814	0.03275995211013927	-0.06855901068112208	0.506518626810943	-0.020733866332498185	-0.06206294585389199	0.5225331887977028	-0.02409545360832066	-0.06708624510431035	0.5396111602019503	-0.011944642777430348	-0.0658563232093812	0.5243875834606998	0.016958953063394566	-0.05056880183822687	0.462283081001861	-0.023011742144276925	-0.051989820119430985
